<?xml version="1.0" standalone="no"?>
<!DOCTYPE svg PUBLIC "-//W3C//DTD SVG 20010904//EN"
 "http://www.w3.org/TR/2001/REC-SVG-20010904/DTD/svg10.dtd">
<svg version="1.0" xmlns="http://www.w3.org/2000/svg"
 width="178.000000pt" height="57.000000pt" viewBox="0 0 178.000000 57.000000"
 preserveAspectRatio="xMidYMid meet">

<g transform="translate(0.000000,57.000000) scale(0.100000,-0.100000)"
fill="#000000" stroke="none">
<path d="M0 285 l0 -285 890 0 890 0 0 285 0 285 -890 0 -890 0 0 -285z m240
200 c10 -13 10 -19 -5 -35 -9 -10 -23 -16 -30 -14 -29 12 -90 -35 -119 -91
-25 -48 -20 0 5 52 16 32 35 52 73 73 59 35 60 35 76 15z m468 -35 c110 -67
66 -280 -59 -280 -76 0 -128 81 -115 178 8 56 21 79 59 102 41 25 74 25 115 0z
m587 -77 c20 -49 40 -91 44 -96 4 -4 24 35 45 88 29 74 42 95 57 95 18 0 19
-9 19 -140 0 -116 -2 -140 -15 -140 -11 0 -15 20 -17 103 l-3 102 -34 -82
c-24 -60 -38 -83 -51 -83 -12 0 -28 24 -53 83 l-36 82 -1 -102 c0 -85 -3 -103
-15 -103 -13 0 -15 22 -15 140 0 130 1 140 19 140 14 0 28 -22 56 -87z m-334
-12 c25 -25 29 -37 29 -81 0 -44 -4 -56 -29 -81 -35 -34 -59 -36 -95 -8 l-26
20 0 -55 c0 -43 -3 -56 -15 -56 -13 0 -15 22 -15 140 0 118 2 140 15 140 8 0
15 -7 15 -16 0 -13 5 -12 26 5 36 28 60 26 95 -8z m196 7 c16 -13 17 -38 2
-38 -6 0 -17 7 -25 15 -19 19 -48 19 -64 0 -16 -19 -6 -31 38 -46 20 -6 45
-18 55 -27 61 -53 -51 -133 -116 -82 -15 12 -27 26 -27 31 0 14 30 11 46 -6
20 -19 48 -19 64 0 19 22 7 39 -40 55 -50 18 -65 37 -56 73 10 42 85 57 123
25z m405 -22 l24 -34 22 34 c12 19 29 34 37 34 21 0 19 -5 -14 -54 l-30 -43
35 -51 c31 -47 33 -52 15 -52 -12 0 -30 15 -45 36 l-24 35 -27 -35 c-15 -20
-34 -36 -41 -36 -20 0 -18 6 17 56 34 49 35 38 -17 119 -16 24 -15 25 4 25 13
0 31 -14 44 -34z m-1432 -139 c17 -15 52 -32 76 -38 33 -9 44 -16 44 -31 0
-17 -5 -19 -32 -13 -42 9 -79 28 -100 52 -19 21 -48 85 -48 105 1 7 7 -1 14
-17 7 -17 28 -43 46 -58z m290 12 c-14 -32 -82 -89 -107 -89 -7 0 -13 -5 -13
-12 0 -6 -9 -3 -20 7 -19 17 -19 20 -4 36 9 10 22 15 29 13 19 -8 69 21 97 54
28 36 35 33 18 -9z"/>
<path d="M617 429 c-49 -29 -63 -133 -24 -190 50 -74 137 -24 137 78 0 88 -56
145 -113 112z"/>
<path d="M865 340 c-27 -29 -24 -99 5 -122 28 -22 32 -22 60 0 44 36 21 142
-30 142 -9 0 -25 -9 -35 -20z"/>
</g>
</svg>
